<?xml version="1.0" encoding="UTF-8" standalone="no"?>
<!-- Created with Inkscape (http://www.inkscape.org/) -->

<svg
   xmlns:dc="http://purl.org/dc/elements/1.1/"
   xmlns:cc="http://creativecommons.org/ns#"
   xmlns:rdf="http://www.w3.org/1999/02/22-rdf-syntax-ns#"
   xmlns:svg="http://www.w3.org/2000/svg"
   xmlns="http://www.w3.org/2000/svg"
   version="1.1"
   width="214.55"
   height="212"
   id="svg6776">
  <defs
     id="defs6778">
    <clipPath
       id="clipPath796">
      <path
         d="m 65.299,507.126 c -11.954,0 -20.435,-3.248 -20.435,-3.248 l 0,0 0,-31.316 c 4.915,-12.415 20.128,-17.248 20.128,-17.248 l 0,0 c 18.477,7.613 20.222,17.235 20.222,17.235 l 0,0 0,31.329 c -7.087,2.434 -13.929,3.248 -19.905,3.248 l 0,0 c -0.003,0 -0.006,0 -0.01,0"
         id="path798" />
    </clipPath>
  </defs>
  <metadata
     id="metadata6781">
    <rdf:RDF>
      <cc:Work
         rdf:about="">
        <dc:format>image/svg+xml</dc:format>
        <dc:type
           rdf:resource="http://purl.org/dc/dcmitype/StillImage" />
        <dc:title></dc:title>
      </cc:Work>
    </rdf:RDF>
  </metadata>
  <g
     transform="translate(-282.54582,-421.2219)"
     id="layer1">
    <g
       transform="matrix(3.2570369,0,0,-3.2570369,178.28464,2079.0891)"
       id="g6634">
      <path
         d="m 32.625107,490.83771 c 0,0 7.213,5.878 14.025,6.742 l 0,-8.157 c 0,0 -5.183,-1.968 -11.083,-6.741 l 1.2,5.974 -4.142,2.182 z"
         id="path754"
         style="fill:#141006;fill-opacity:1;fill-rule:nonzero;stroke:none" />
      <path
         d="m 97.351807,490.83771 c 0,0 -7.213,5.878 -14.026,6.742 l 0,-8.157 c 0,0 5.184,-1.968 11.084,-6.741 l -1.2,5.974 4.142,2.182 z"
         id="path766"
         style="fill:#141006;fill-opacity:1;fill-rule:nonzero;stroke:none" />
      <path
         d="m 44.8638,503.8777 c 0,0 19.079,7.308 40.35,0 l 0,-31.328 c 0,0 -1.745,-9.623 -20.222,-17.236 0,0 -15.213,4.834 -20.128,17.248 l 0,31.316 z"
         id="path770"
         style="fill:#cfd4d8;fill-opacity:1;fill-rule:nonzero;stroke:none" />
      <path
         d="m 44.8638,503.8777 c 0,0 19.079,7.308 40.35,0 l 0,-31.328 c 0,0 -1.745,-9.623 -20.222,-17.236 0,0 -15.213,4.834 -20.128,17.248 l 0,31.316 z"
         id="path774"
         style="fill:none;stroke:#141006;stroke-width:2.36999989;stroke-linecap:butt;stroke-linejoin:miter;stroke-miterlimit:4;stroke-opacity:1;stroke-dasharray:none" />
      <path
         d="m 44.8638,503.8777 c 0,0 19.079,7.308 40.35,0 l 0,-31.328 c 0,0 -1.745,-9.623 -20.222,-17.236 0,0 -15.213,4.834 -20.128,17.248 l 0,31.316 z"
         id="path778"
         style="fill:#020202;fill-opacity:1;fill-rule:nonzero;stroke:none" />
      <path
         d="m 44.8638,503.8777 c 0,0 19.079,7.308 40.35,0 l 0,-31.328 c 0,0 -1.745,-9.623 -20.222,-17.236 0,0 -15.213,4.834 -20.128,17.248 l 0,31.316 z"
         id="path782"
         style="fill:none;stroke:#cfd4d8;stroke-width:1.778;stroke-linecap:butt;stroke-linejoin:miter;stroke-miterlimit:4;stroke-opacity:1;stroke-dasharray:none" />
      <path
         d="m 44.8638,503.8777 c 0,0 19.079,7.308 40.35,0 l 0,-31.328 c 0,0 -1.745,-9.623 -20.222,-17.236 0,0 -15.213,4.834 -20.128,17.248 l 0,31.316 z"
         id="path786"
         style="fill:#cfd4d8;fill-opacity:1;fill-rule:nonzero;stroke:none" />
      <path
         d="m 44.8638,503.8777 c 0,0 19.079,7.308 40.35,0 l 0,-31.328 c 0,0 -1.745,-9.623 -20.222,-17.236 0,0 -15.213,4.834 -20.128,17.248 l 0,31.316 z"
         id="path790"
         style="fill:none;stroke:#020202;stroke-width:0.79000002;stroke-linecap:butt;stroke-linejoin:miter;stroke-miterlimit:4;stroke-opacity:1;stroke-dasharray:none" />
      <g
         clip-path="url(#clipPath796)"
         id="g794">
        <path
           d="m 50.127,458.632 -3.212,0 0,50.429 3.212,0 0,-50.429 z"
           id="path800"
           style="fill:#ffffff;fill-opacity:1;fill-rule:nonzero;stroke:none" />
        <path
           d="m 56.695,456.256 -3.212,0 0,52.704 3.212,0 0,-52.704 z"
           id="path802"
           style="fill:#ffffff;fill-opacity:1;fill-rule:nonzero;stroke:none" />
        <path
           d="m 63.362,453.105 -3.212,0 0,59.123 3.212,0 0,-59.123 z"
           id="path804"
           style="fill:#ffffff;fill-opacity:1;fill-rule:nonzero;stroke:none" />
        <path
           d="m 69.929,452.142 -3.212,0 0,57.997 3.212,0 0,-57.997 z"
           id="path806"
           style="fill:#ffffff;fill-opacity:1;fill-rule:nonzero;stroke:none" />
        <path
           d="m 76.568,453.105 -3.212,0 0,57.132 3.212,0 0,-57.132 z"
           id="path808"
           style="fill:#ffffff;fill-opacity:1;fill-rule:nonzero;stroke:none" />
        <path
           d="m 83.135,452.142 -3.212,0 0,56.819 3.212,0 0,-56.819 z"
           id="path810"
           style="fill:#ffffff;fill-opacity:1;fill-rule:nonzero;stroke:none" />
      </g>
      <path
         d="m 44.8638,503.8777 c 0,0 19.079,7.308 40.35,0 l 0,-31.328 c 0,0 -1.745,-9.623 -20.222,-17.236 0,0 -15.213,4.834 -20.128,17.248 l 0,31.316 z"
         id="path822"
         style="fill:none;stroke:#141006;stroke-width:0.79000002;stroke-linecap:butt;stroke-linejoin:miter;stroke-miterlimit:4;stroke-opacity:1;stroke-dasharray:none" />
      <path
         d="m 41.8452,489.7231 1.876,-1.592 -0.031,2.385 -1.845,-0.793 z"
         id="path834"
         style="fill:#455560;fill-opacity:1;fill-rule:nonzero;stroke:none" />
      <path
         d="m 88.131699,489.7231 -1.876,-1.592 0.031,2.385 1.845,-0.793 z"
         id="path838"
         style="fill:#455560;fill-opacity:1;fill-rule:nonzero;stroke:none" />
      <path
         d="m 88.074295,500.5643 c -6.973,2.905 -14.625,4.087 -22.695,4.087 -8.38,0 -16.342,-1.324 -23.534,-4.463 l 0,-10.465 c 7.192,3.246 15.154,5.052 23.534,5.052 8.07,0 15.722,-1.654 22.695,-4.671 l 0,10.46 z"
         id="path842"
         style="fill:#141006;fill-opacity:1;fill-rule:nonzero;stroke:none" />
      <path
         d="m 88.074295,500.5643 c -6.973,2.905 -14.625,4.087 -22.695,4.087 -8.38,0 -16.342,-1.324 -23.534,-4.463 l 0,-10.465 c 7.192,3.246 15.154,5.052 23.534,5.052 8.07,0 15.722,-1.654 22.695,-4.671 l 0,10.46 z"
         id="path846"
         style="fill:none;stroke:#141006;stroke-width:0.60900003;stroke-linecap:butt;stroke-linejoin:miter;stroke-miterlimit:4;stroke-opacity:1;stroke-dasharray:none" />
      <path
         d="m 88.074295,500.5643 c -6.973,2.905 -14.625,4.087 -22.695,4.087 -8.38,0 -16.342,-1.324 -23.534,-4.463 l 0,-10.465 c 7.192,3.246 15.154,5.052 23.534,5.052 8.07,0 15.722,-1.654 22.695,-4.671 l 0,10.46 z"
         id="path850"
         style="fill:#00bce4;fill-opacity:1;fill-rule:nonzero;stroke:none" />
      <path
         d="m 54.011993,471.02521 c -0.296,-4.24 -3.973,-7.436 -8.213,-7.14 -4.239,0.296 -7.436,3.973 -7.139,8.213 0.296,4.239 3.972,7.435 8.212,7.139 4.24,-0.296 7.436,-3.973 7.14,-8.212"
         id="path854"
         style="fill:#ffffff;fill-opacity:1;fill-rule:nonzero;stroke:none" />
      <path
         d="m 50.780197,465.4631 c 0,0 -4.45,-3.337 -8.66,-0.061 0,0 3.925,-2.355 8.66,0.061"
         id="path858"
         style="fill:#cfd4d8;fill-opacity:1;fill-rule:nonzero;stroke:none" />
      <path
         d="m 53.373703,474.0407 c 0,0 2.041,-5.174 -2.233,-8.368 0,0 3.311,3.163 2.233,8.368"
         id="path862"
         style="fill:#cfd4d8;fill-opacity:1;fill-rule:nonzero;stroke:none" />
      <path
         d="m 54.011993,471.02521 c -0.296,-4.24 -3.973,-7.436 -8.213,-7.14 -4.239,0.296 -7.436,3.973 -7.139,8.213 0.296,4.239 3.972,7.435 8.212,7.139 4.24,-0.296 7.436,-3.973 7.14,-8.212 z"
         id="path866"
         style="fill:none;stroke:#000000;stroke-width:0.292;stroke-linecap:butt;stroke-linejoin:miter;stroke-miterlimit:4;stroke-opacity:1;stroke-dasharray:none" />
      <path
         d="m 46.602707,474.3894 c 0,0 1.463,-1.066 2.439,-2.214 0,0 -0.51,-2.053 -1.334,-3.006 0,0 -2.125,-0.172 -3.259,0.343 0,0 -0.545,1.07 -0.694,3.216 0,0 1.355,0.985 2.848,1.661"
         id="path870"
         style="fill:#141006;fill-opacity:1;fill-rule:nonzero;stroke:none" />
      <path
         d="m 40.659805,476.73289 c 0,0 0.716,-0.257 1.011,-0.323 0,0 -0.25,-0.947 -0.318,-2.572 0,0 -0.758,-0.659 -1.723,-1.992 l -0.967,0.619 c 0,0 0.244,2.829 1.997,4.268"
         id="path874"
         style="fill:#141006;fill-opacity:1;fill-rule:nonzero;stroke:none" />
      <path
         d="m 39.620697,467.75999 c 0,0 1.081,-2.256 3.564,-3.187 0,0 0.916,0.625 0.923,0.716 0,0 -0.993,1.241 -1.446,2.306 0,0 -1.46,0.468 -2.376,1.153 0,0 -0.435,-0.636 -0.665,-0.988"
         id="path878"
         style="fill:#141006;fill-opacity:1;fill-rule:nonzero;stroke:none" />
      <path
         d="m 52.054306,466.45171 c 0,0 -1.53,-2.029 -4.153,-2.423 0,0 -0.763,0.847 -0.75,0.938 0,0 1.228,1.006 1.894,1.954 0,0 1.524,0.156 2.563,0.635 0,0 0.293,-0.713 0.446,-1.104"
         id="path882"
         style="fill:#141006;fill-opacity:1;fill-rule:nonzero;stroke:none" />
      <path
         d="m 41.262604,476.1239 c 0,0 2.818,1.807 3.522,2.077 m -3.792,-4.165 c 0,0 2.004,-1.002 3.007,-1.416 m 7.784,0.152 c 0,0 -1.777,-0.439 -2.847,-0.63 m -1.976,5.07 -0.329,-2.876 m 2.547,3.341 c 0,0 2.379,-1.776 2.979,-2.593 m -12.565,-2.903 c 0,0 0.47,-2.777 0.682,-3.48 m 12.694,1.847 c 0,0 -1.001,-2.403 -1.373,-3.035 m -8.945,0.056 c 0,0 1.699,1.835 1.921,2.072 m 4.465,-2.757 c 0,0 -1.233,2.184 -1.403,2.462 m -3.572,-4.053 c 0,0 1.06,-0.474 3.198,-0.321"
         id="path886"
         style="fill:none;stroke:#000000;stroke-width:0.124;stroke-linecap:butt;stroke-linejoin:miter;stroke-miterlimit:4;stroke-opacity:1;stroke-dasharray:none" />
      <path
         d="m 55.189194,470.994 c 0,0 -0.652,1.369 -0.349,1.833 0,0 0.529,-0.835 1.004,-0.998 l -0.655,-0.835 z"
         id="path890"
         style="fill:#020202;fill-opacity:1;fill-rule:nonzero;stroke:none" />
      <path
         d="m 55.404098,471.0338 c 0,0 -0.568,0.883 -0.401,1.227 0,0 0.437,-0.526 0.778,-0.596 l -0.377,-0.631 z"
         id="path894"
         style="fill:#ffffff;fill-opacity:1;fill-rule:nonzero;stroke:none" />
      <path
         d="m 51.722305,467.33189 c 0,0 -0.321,0.634 -0.331,0.887 0,0 0.044,-0.11 0.726,-0.229 l -0.395,-0.658 z"
         id="path898"
         style="fill:#020202;fill-opacity:1;fill-rule:nonzero;stroke:none" />
      <path
         d="m 51.798203,467.38361 c 0,0 -0.221,0.434 -0.227,0.609 0,0 0.03,-0.077 0.497,-0.158 l -0.27,-0.451 z"
         id="path902"
         style="fill:#ffffff;fill-opacity:1;fill-rule:nonzero;stroke:none" />
      <path
         d="m 52.0728,467.9158 c 0,0 -0.369,0.514 -0.238,1.177 0,0 0.323,-0.607 0.815,-0.722 l -0.577,-0.455 z"
         id="path906"
         style="fill:#020202;fill-opacity:1;fill-rule:nonzero;stroke:none" />
      <path
         d="m 52.130798,467.88429 c 0,0 -0.235,0.328 -0.151,0.749 0,0 0.205,-0.386 0.518,-0.459 l -0.367,-0.29 z"
         id="path910"
         style="fill:#ffffff;fill-opacity:1;fill-rule:nonzero;stroke:none" />
      <path
         d="m 48.707596,465.3419 c 0,0 0.091,-0.637 0.347,-0.857 l 0.448,0.489 c 0,0 -0.569,0.086 -0.795,0.368"
         id="path914"
         style="fill:#020202;fill-opacity:1;fill-rule:nonzero;stroke:none" />
      <path
         d="m 49.146103,464.51601 0.272,0.297"
         id="path918"
         style="fill:#ffffff;fill-opacity:1;fill-rule:nonzero;stroke:none" />
      <path
         d="m 44.703903,461.7303 c -0.033,-10e-4 -0.445,1.307 -0.045,2.01 0,0 0.513,-1.339 1.131,-1.64 0,0 -0.686,-0.355 -1.086,-0.37"
         id="path922"
         style="fill:#020202;fill-opacity:1;fill-rule:nonzero;stroke:none" />
      <path
         d="m 45.089996,461.81261 c -0.023,-0.001 -0.522,0.378 -0.371,1.229 0,0 0.418,-0.775 0.846,-0.983 0,0 -0.198,-0.236 -0.475,-0.246"
         id="path926"
         style="fill:#ffffff;fill-opacity:1;fill-rule:nonzero;stroke:none" />
      <path
         d="m 45.018295,465.4579 c 0,0 0.863,-2.202 1.655,-2.692 0,0 -0.623,-0.525 -1.106,-0.691 0,0 -1.024,2.449 -0.549,3.383"
         id="path930"
         style="fill:#020202;fill-opacity:1;fill-rule:nonzero;stroke:none" />
      <path
         d="m 45.276505,464.3587 c 0,0 0.686,-1.444 1.244,-1.738 0,0 -0.396,-0.383 -0.713,-0.517 0,0 -0.807,1.602 -0.531,2.255"
         id="path934"
         style="fill:#ffffff;fill-opacity:1;fill-rule:nonzero;stroke:none" />
      <path
         d="m 46.419907,464.3736 c 0,0 -0.19,-0.893 0.152,-1.691 0,0 0.541,0.109 0.904,0.63 0,0 -0.865,0.433 -1.056,1.061"
         id="path938"
         style="fill:#020202;fill-opacity:1;fill-rule:nonzero;stroke:none" />
      <path
         d="m 46.622604,463.7464 c 0,0 -0.115,-0.537 0.091,-1.017 0,0 0.325,0.065 0.544,0.379 0,0 -0.52,0.26 -0.635,0.638"
         id="path942"
         style="fill:#ffffff;fill-opacity:1;fill-rule:nonzero;stroke:none" />
      <path
         d="m 66.436401,474.8761 c 0,0 -3.491,-2.552 -6.205,-4.366 -2.715,-1.815 -6.055,-4.119 -10.005,-9.124 0,0 -4.251,-1.833 -6.242,0.203 0,0 2.296,0.796 4.135,2.462 1.84,1.666 4.522,4.91 6.254,6.59 1.732,1.68 3.1,3.161 3.725,3.584 0,0 3.125,2.214 4.867,1.763 0,0 2.673,0.078 3.471,-1.112"
         id="path946"
         style="fill:#020202;fill-opacity:1;fill-rule:nonzero;stroke:none" />
      <path
         d="m 53.552093,479.7067 c 0,0 0.518,-1.303 1.995,-1.771 0,0 -0.615,1.311 -0.701,1.592 -0.085,0.282 0,0 0,0 l -1.294,0.179 z"
         id="path950"
         style="fill:#020202;fill-opacity:1;fill-rule:nonzero;stroke:none" />
      <path
         d="m 53.694794,479.6586 c 0,0 0.359,-0.903 1.383,-1.228 0,0 -0.427,0.909 -0.486,1.104 -0.06,0.195 0,0 0,0 l -0.897,0.124 z"
         id="path954"
         style="fill:#ffffff;fill-opacity:1;fill-rule:nonzero;stroke:none" />
      <path
         d="m 49.566696,479.8391 c 0,0 0.634,-0.678 1.248,-0.964 0,0 -0.219,0.697 -0.242,1.064 0,0 -0.561,-0.009 -1.006,-0.1"
         id="path958"
         style="fill:#020202;fill-opacity:1;fill-rule:nonzero;stroke:none" />
      <path
         d="m 50.392395,479.9537 c 0,0 -0.352,-0.006 -0.631,-0.063 0,0 0.398,-0.425 0.783,-0.605"
         id="path962"
         style="fill:#ffffff;fill-opacity:1;fill-rule:nonzero;stroke:none" />
      <path
         d="m 40.849106,478.20799 c 0,0 0.511,-1.132 2.267,-1.45 0,0 -0.807,1.194 -0.938,1.828 0,0 -0.824,-0.047 -1.329,-0.378"
         id="path966"
         style="fill:#020202;fill-opacity:1;fill-rule:nonzero;stroke:none" />
      <path
         d="m 41.046402,478.24719 c 0,0 0.348,-0.77 1.542,-0.987 0,0 -0.548,0.813 -0.638,1.244 0,0 -0.56,-0.031 -0.904,-0.257"
         id="path970"
         style="fill:#ffffff;fill-opacity:1;fill-rule:nonzero;stroke:none" />
      <path
         d="m 42.318497,478.6221 c 0,0 0.876,-1.09 1.391,-1.394 0,0 -0.302,1.32 -0.239,1.819 0,0 -0.915,-0.143 -1.152,-0.425"
         id="path974"
         style="fill:#020202;fill-opacity:1;fill-rule:nonzero;stroke:none" />
      <path
         d="m 42.517197,478.6767 c 0,0 0.546,-0.68 0.867,-0.87 0,0 -0.188,0.824 -0.148,1.135 0,0 -0.571,-0.089 -0.719,-0.265"
         id="path978"
         style="fill:#ffffff;fill-opacity:1;fill-rule:nonzero;stroke:none" />
      <path
         d="m 43.382996,479.03169 c 0,0 0.484,-0.938 1.157,-1.424 0,0 -0.286,1.572 -0.211,1.868 l -0.946,-0.444 z"
         id="path982"
         style="fill:#020202;fill-opacity:1;fill-rule:nonzero;stroke:none" />
      <path
         d="m 43.532501,479.08 c 0,0 0.312,-0.605 0.746,-0.918 0,0 -0.184,1.014 -0.136,1.204 l -0.61,-0.286 z"
         id="path986"
         style="fill:#ffffff;fill-opacity:1;fill-rule:nonzero;stroke:none" />
      <path
         d="m 58.904495,476.48309 c 0,0 -1.048,1.729 -2.452,2.558 0,0 -7.17,1.962 -16.295,-1.054 0,0 1.631,3.378 6.368,6.083 0,0 3.123,1.661 3.802,2.121 0,0 -0.102,0.641 0.157,0.866 0,0 0.924,0.667 2.746,0.247 0,0 7.254,4.121 18.8,2.048 0,0 7.307,1.389 11.603,0.115 0,0 -3.566,-0.141 -3.46,-2.097 0,0 5.148,-1.626 7.147,-4.396 1.998,-2.771 2.343,-4.111 2.618,-5.055 0,0 6.017,-6.607 0.908,-16.285 0,0 0.222,6.21 -1.779,6.603 0,0 -2.372,-4.657 -5.264,-6.306 -2.891,-1.649 -7.197,-2.615 -8.256,-3.125 -1.059,-0.511 -4.104,-1.565 -5.87,-3.828 0,0 -4.417,-10.239 -12.128,-10.443 0,0 4.199,2.228 4.792,5.841 0.594,3.611 0.985,5.727 2.568,7.468 0,0 -2.925,1.374 -5.037,3.908 -2.112,2.535 -6.368,1.051 -6.368,1.051 0,0 5.554,3.342 10.461,1.05 4.906,-2.291 5.611,-2.594 8.275,-2.185 2.663,0.408 5.971,3.187 6.515,4.708 0,0 -2.095,0.682 -5.539,-2.585 0,0 1.891,4.057 6.513,6.755 0,0 -1.229,1.937 -8.216,2.328 0,0 0.852,-2.447 2.238,-3.518 0,0 -2.66,1.147 -5.147,3.721 0,0 -5.557,-0.05 -8.766,-0.654"
         id="path990"
         style="fill:#141006;fill-opacity:1;fill-rule:nonzero;stroke:none" />
      <path
         d="m 57.544495,473.2402 c 1.232,0.703 4.68,3.687 8.599,1.442 0,0 0.139,3.869 -6.709,5.596 0,0 3.807,-1.976 4.355,-2.605 0,0 -0.529,-0.029 -0.921,-0.002 0,0 2.219,-0.221 2.376,-1.744 0,0 -1.375,1.017 -3.02,1 0,0 -6.489,5.911 -21.243,1.748 0,0 2.195,3.199 9.095,6.924 0,0 -0.087,-1.243 -0.128,-1.832 0,0 0.562,-0.433 1.057,2.885 0,0 1.302,0.764 2.504,0.088 l -0.038,0.397 c 0,0 4.796,1.835 8.771,2.28 3.976,0.445 7.756,-0.016 10.285,-0.521 2.529,-0.506 8.479,-1.907 10.869,-3.455 2.39,-1.548 4.392,-3.002 5.781,-6.649 1.389,-3.647 0.733,-5.508 0.395,-7.523 -0.338,-2.014 -2.821,-6.508 -5.795,-8.601 -2.973,-2.093 -6.626,-2.627 -8.255,-3.368 -1.63,-0.741 -4.67,-1.909 -6.204,-4.102 0,0 -1.738,3.342 -0.43,6.078 0,0 3.819,-0.858 6.657,1.178 2.837,2.037 3.858,3.478 4.496,5.077 0.638,1.599 0.262,2.808 0.163,3.276 0,0 0.949,-0.527 1.258,-0.812 0,0 -0.451,2.004 -7.593,3.292 0,0 -3.514,0.509 -8.467,0.197 l 0.635,0.613 c 0,0 -2.214,-0.634 -5.072,-1.091"
         id="path994"
         style="fill:#72cdf4;fill-opacity:1;fill-rule:nonzero;stroke:none" />
      <path
         d="m 61.313705,474.707 c 2.043,-0.046 4.196,0.096 5.107,-0.113 0,0 -0.547,4.097 -6.986,5.684 0,0 4.192,-2.104 4.354,-2.605 l -0.558,-0.013 c 0,0 -5.946,4.927 -19.165,2.587 0,0 5.621,3.748 16.516,0.016 0,0 3.466,1.511 4.266,1.796 0,0 0.494,-1.301 0.505,-1.838 0,0 0.798,0.968 1.361,2.049 0,0 1.727,0.318 2.028,0.443 0,0 -0.067,-1.652 -0.283,-2.66 0,0 1.341,1.758 1.612,2.859 0,0 8.603,-1.673 11.011,-2.767 2.408,-1.093 4.907,-2.291 6.035,-4.269 1.128,-1.979 1.007,-4.406 0.774,-5.656 -0.234,-1.251 -0.998,-3.828 -4.131,-6.824 0,0 5.58,3.166 5.797,10.458 0,0 0.678,5.927 -4.52,10.464 0,0 5.356,-3.215 4.954,-10.446 0,0 -0.231,-7.009 -6.485,-11.389 0,0 -2.101,-1.444 -5.752,-2.437 0,0 -6.662,-2.001 -8.435,-4.848 0,0 -1.724,3.058 -0.43,6.078 0,0 3.578,-0.853 6.656,1.179 0,0 6.085,4.064 4.66,8.352 0,0 0.958,-0.49 1.258,-0.812 0,0 -1.879,4.207 -16.06,3.49 l 0.635,0.612 c 0,0 -4.003,-1.055 -7.339,-1.502"
         id="path998"
         style="fill:#00bce4;fill-opacity:1;fill-rule:nonzero;stroke:none" />
      <path
         d="m 76.237198,487.49899 c 0,0 9.454,-1.342 11.77,-7.934 0,0 -2.387,5.573 -11.77,7.934"
         id="path1002"
         style="fill:#020202;fill-opacity:1;fill-rule:nonzero;stroke:none" />
      <path
         d="m 47.136307,480.95889 c 0,0 5.474,1.193 9.002,-0.142 0,0 -3.948,0.666 -9.002,0.142"
         id="path1006"
         style="fill:#020202;fill-opacity:1;fill-rule:nonzero;stroke:none" />
      <path
         d="m 59.224106,480.35741 c 0,0 6.272,-0.877 7.196,-5.764 0,0 -1.788,1.891 -4.26,1.736 l 0.065,0.598 c 0,0 2.201,-0.362 3.02,-1 0,0 -0.207,1.471 -2.377,1.744 l 0.921,0.001 c 0,0 -1.417,1.576 -4.565,2.685"
         id="path1010"
         style="fill:#020202;fill-opacity:1;fill-rule:nonzero;stroke:none" />
      <path
         d="m 76.463196,473.30721 c 0,0 6.05,-0.568 6.267,-4.432 l -0.433,0.079 c 0,0 0.299,-2.7 -1.32,-3.562 0,0 1.505,1.86 0.866,4.032 l 0.336,-0.072 c 0,0 0.457,2.355 -5.716,3.955"
         id="path1014"
         style="fill:#020202;fill-opacity:1;fill-rule:nonzero;stroke:none" />
      <path
         d="m 82.414795,462.2722 c 0,0 -2.629,-1.375 -3.518,-1.557 -0.89,-0.181 -2.904,-1.112 -3.534,-1.069 0,0 6.146,2.202 7.052,2.626"
         id="path1018"
         style="fill:#141006;fill-opacity:1;fill-rule:nonzero;stroke:none" />
      <path
         d="m 49.190399,484.5663 c 0,0 -5.313,-3.526 -5.683,-3.938 0,0 5.387,3.228 5.683,3.938"
         id="path1022"
         style="fill:#020202;fill-opacity:1;fill-rule:nonzero;stroke:none" />
      <path
         d="m 57.446396,483.50211 c 0,0 3.286,0.447 3.507,-2.097 0,0 -1.572,1.913 -3.507,2.097"
         id="path1026"
         style="fill:#00afdb;fill-opacity:1;fill-rule:nonzero;stroke:none" />
      <path
         d="m 59.444397,485.60339 c 0,0 6.583,-0.606 3.512,-5.507 0,0 0.365,3.823 -3.512,5.507"
         id="path1030"
         style="fill:#00afdb;fill-opacity:1;fill-rule:nonzero;stroke:none" />
      <path
         d="m 64.6091,486.3141 c 0,0 7.732,-2.538 1.891,-7.098 0,0 3.001,4.422 -1.891,7.098"
         id="path1034"
         style="fill:#00afdb;fill-opacity:1;fill-rule:nonzero;stroke:none" />
      <path
         d="m 69.080399,487.56059 c 0,0 8.807,-3.636 0.496,-9.631 0,0 5.341,5.326 -0.496,9.631"
         id="path1038"
         style="fill:#00afdb;fill-opacity:1;fill-rule:nonzero;stroke:none" />
      <path
         d="m 75.082397,486.3131 c 0,0 6.862,-4.279 -0.851,-9.391 0,0 4.839,5.116 0.851,9.391"
         id="path1042"
         style="fill:#00afdb;fill-opacity:1;fill-rule:nonzero;stroke:none" />
      <path
         d="m 80.253998,485.02631 c 0,0 4.159,-5.308 -1.932,-8.828 0,0 3.674,3.784 1.932,8.828"
         id="path1046"
         style="fill:#00afdb;fill-opacity:1;fill-rule:nonzero;stroke:none" />
      <path
         d="m 72.305801,484.21761 c 0,0 0.468,-0.277 0.547,-0.526 0,0 7.324,1.632 10.091,-0.607 0,0 -4.736,-0.156 -8.185,-4.202 0,0 -2.327,2.257 -2.366,2.406 0,0 -0.463,-0.357 -0.657,-0.344 0,0 0.849,1.695 0.57,3.273"
         id="path1050"
         style="fill:#020202;fill-opacity:1;fill-rule:nonzero;stroke:none" />
      <path
         d="m 73.051605,483.0451 c 0,0 3.365,1.343 8.642,0.273 0,0 -3.348,-0.497 -5.432,-2.446 0,0 0.052,2.47 -3.55,0.784 0,0 0.152,0.087 0.34,1.389"
         id="path1054"
         style="fill:#455560;fill-opacity:1;fill-rule:nonzero;stroke:none" />
      <path
         d="m 83.899506,482.82269 c 0,0 4.225,-5.068 -2.274,-7.44 0,0 3.902,2.845 2.274,7.44"
         id="path1058"
         style="fill:#00afdb;fill-opacity:1;fill-rule:nonzero;stroke:none" />
      <path
         d="m 87.492401,479.162 c 0,0 2.152,-5.46 -2.997,-5.247 0,0 3.257,0.601 2.997,5.247"
         id="path1062"
         style="fill:#00afdb;fill-opacity:1;fill-rule:nonzero;stroke:none" />
      <path
         d="m 88.980896,474.67371 c 0,0 -0.407,-3.04 -3.035,-3.003 0,0 2.984,-1.794 3.035,3.003"
         id="path1066"
         style="fill:#00afdb;fill-opacity:1;fill-rule:nonzero;stroke:none" />
      <path
         d="m 88.720993,469.54849 c 0,0 -1.115,-1.307 -2.445,-0.824 0,0 1.056,-1.641 2.445,0.824"
         id="path1070"
         style="fill:#00afdb;fill-opacity:1;fill-rule:nonzero;stroke:none" />
      <path
         d="m 59.589996,487.68781 c 0,0 6.011,-1.115 7.123,-5.418 0,0 -2.204,4.003 -7.123,5.418"
         id="path1074"
         style="fill:#00bce4;fill-opacity:1;fill-rule:nonzero;stroke:none" />
      <path
         d="m 59.589996,487.68781 c 0,0 5.326,-2.564 6.49,-5.422 0,0 -1.083,-2.945 -1.245,-3.177 l -0.97,0.068 c 0,0 1.539,-0.984 1.776,-1.781 l -0.29,1.433 c 0,0 0.872,2.716 1.362,3.461 0,0 -2.101,4.093 -7.123,5.418"
         id="path1078"
         style="fill:#020202;fill-opacity:1;fill-rule:nonzero;stroke:none" />
      <path
         d="m 63.044403,488.3233 c 0,0 5.623,-0.394 7.411,-5.487 l -0.384,0.076 c 0,0 -1.101,3.779 -7.027,5.411"
         id="path1082"
         style="fill:#00bce4;fill-opacity:1;fill-rule:nonzero;stroke:none" />
      <path
         d="m 63.044403,488.3233 c 0,0 5.663,-1.224 7.027,-5.411 0,0 -0.745,-4.381 -3.54,-6.037 0,0 2.63,2.788 2.867,6.181 0,0 -1.008,2.994 -6.354,5.267"
         id="path1086"
         style="fill:#020202;fill-opacity:1;fill-rule:nonzero;stroke:none" />
      <path
         d="m 82.943695,483.0847 c 0,0 -3.307,-0.852 -4.712,-2.015 l -0.719,0.189 c 0,0 2.319,1.577 5.431,1.826"
         id="path1090"
         style="fill:#00bce4;fill-opacity:1;fill-rule:nonzero;stroke:none" />
      <path
         d="m 40.981094,478.6749 c 0,0 10.565,4.752 21.034,-0.899 l 1.451,0.207 c 0,0 1.566,-0.823 1.779,-2.056 0,0 -1.292,0.972 -3.02,1.001 0,0 -6.787,5.818 -21.244,1.747"
         id="path1094"
         style="fill:#00bce4;fill-opacity:1;fill-rule:nonzero;stroke:none" />
      <path
         d="m 53.374496,485.8813 c 0,0 -2.53,0.299 -2.54,-2.352 0,0 0.314,1.874 2.54,2.352"
         id="path1098"
         style="fill:#020202;fill-opacity:1;fill-rule:nonzero;stroke:none" />
      <path
         d="m 54.632996,483.67261 c -0.065,-0.924 -0.975,-1.614 -2.032,-1.54 -1.057,0.074 -1.862,0.884 -1.798,1.808 0.065,0.925 0.975,1.614 2.032,1.54 1.057,-0.074 1.863,-0.883 1.798,-1.808"
         id="path1102"
         style="fill:#141006;fill-opacity:1;fill-rule:nonzero;stroke:none" />
      <path
         d="m 54.076996,483.7372 c -0.053,-0.763 -0.715,-1.338 -1.478,-1.285 -0.763,0.053 -1.338,0.715 -1.285,1.478 0.053,0.763 0.715,1.338 1.478,1.285 0.763,-0.053 1.338,-0.715 1.285,-1.478"
         id="path1106"
         style="fill:#ffffff;fill-opacity:1;fill-rule:nonzero;stroke:none" />
      <path
         d="m 54.152496,483.8015 c -0.034,-0.484 -0.481,-0.847 -0.999,-0.811 -0.518,0.036 -0.911,0.458 -0.877,0.942 0.034,0.484 0.481,0.847 0.999,0.811 0.518,-0.037 0.911,-0.458 0.877,-0.942"
         id="path1110"
         style="fill:#00bce4;fill-opacity:1;fill-rule:nonzero;stroke:none" />
      <path
         d="m 54.221207,484.1889 c -0.022,-0.316 -0.296,-0.553 -0.611,-0.531 -0.316,0.022 -0.553,0.295 -0.531,0.611 0.022,0.315 0.295,0.553 0.611,0.531 0.315,-0.022 0.553,-0.296 0.531,-0.611"
         id="path1114"
         style="fill:#141006;fill-opacity:1;fill-rule:nonzero;stroke:none" />
      <path
         d="m 69.283005,473.0295 1.891,-0.132 c 0,0 0.224,-1.156 1.108,-2.269 0,0 -1.067,0.416 -2.999,2.401"
         id="path1118"
         style="fill:#455560;fill-opacity:1;fill-rule:nonzero;stroke:none" />
      <path
         d="m 73.236099,489.1702 c 0,0 4.586,0.8 8.794,0.36 0,0 -4.674,0.034 -4.96,-1.261 0,0 -2.629,0.719 -3.834,0.901"
         id="path1122"
         style="fill:#455560;fill-opacity:1;fill-rule:nonzero;stroke:none" />
      <path
         d="m 90.116592,476.98129 c 0,0 4.34,-5.515 1.316,-13.245 0,0 2.098,9.109 -1.428,7.456 0,0 0.926,3.069 0.112,5.789"
         id="path1126"
         style="fill:#455560;fill-opacity:1;fill-rule:nonzero;stroke:none" />
      <path
         d="m 68.212402,461.44141 c 0,0 -0.809,-2.935 0.179,-5.351 0,0 -3.391,-6.724 -7.21,-8.384 0,0 1.226,0.48 1.805,4.232 0.58,3.751 2.751,5.896 2.751,5.896 0,0 -3.3,2.278 -4.985,3.953 -1.686,1.678 -1.815,1.719 -4.049,1.788 0,0 3.525,1.576 7.639,-1.99 0,0 -1.467,2.003 -3.777,2.408 0,0 1.088,0.691 7.647,-2.552"
         id="path1130"
         style="fill:#455560;fill-opacity:1;fill-rule:nonzero;stroke:none" />
      <path
         d="m 68.176193,454.4008 c 0,0 -2.268,-6.661 -7.922,-8.799 0,0 4.757,2.541 7.922,8.799"
         id="path1134"
         style="fill:#455560;fill-opacity:1;fill-rule:nonzero;stroke:none" />
      <path
         d="m 79.543304,469.9745 c 0,0 0.23,-0.856 -0.363,-2.41 0,0 -0.218,1.769 -4.471,-1.929 0,0 2.741,3.093 4.834,4.339"
         id="path1138"
         style="fill:#455560;fill-opacity:1;fill-rule:nonzero;stroke:none" />
      <path
         d="m 49.716507,461.6143 c 0,0 -3.685,-0.582 -4.541,-0.116 0,0 2.148,0.813 4.771,3.457 0,0 4.895,5.305 5.753,6.435 0.857,1.131 5.699,5.585 9.64,3.827 0,0 0.447,-0.865 -5.431,-2.824"
         id="path1142"
         style="fill:#00afdb;fill-opacity:1;fill-rule:nonzero;stroke:none" />
      <path
         d="m 65.240006,475.50571 c -0.92,-0.165 -2.456,-1.401 -4.353,-2.161 -1.897,-0.76 -7.825,-6.363 -9.463,-8.165 -1.639,-1.802 -3.473,-3.791 -3.473,-3.791 l 1.765,0.226 c 4.529,4.761 6.69,7.034 9.595,8.761 2.893,1.72 6.278,4.262 6.278,4.262 0,0 0.523,-0.284 0.972,-0.241 0.448,0.042 -0.529,0.984 -1.321,1.109"
         id="path1146"
         style="fill:#00bce4;fill-opacity:1;fill-rule:nonzero;stroke:none" />
      <path
         d="m 63.617294,473.776 c 0,0 -4.131,-2.922 -5.275,-3.627 -1.145,-0.705 -3.383,-2.407 -3.687,-2.718 0,0 1.47,2.052 4.277,3.539 2.807,1.487 4.685,2.806 4.685,2.806"
         id="path1150"
         style="fill:#020202;fill-opacity:1;fill-rule:nonzero;stroke:none" />
      <path
         d="m 65.628494,475.24471 -0.84,-0.252 c 0,0 -2.077,1.403 -5.584,-1.099 -3.505,-2.503 -5.774,-5.601 -6.639,-6.518 -0.865,-0.917 -4.628,-5.05 -6.418,-5.67 0,0 1.128,-0.111 2.237,0.087 l -0.342,-0.386 c 0,0 -1.791,-0.384 -2.867,0.092 0,0 3.183,1.726 4.771,3.457 0,0 3.377,3.617 4.154,4.648 1.36,1.799 4.818,5.686 8.258,6.001 3.111,0.284 3.27,-0.36 3.27,-0.36"
         id="path1154"
         style="fill:#00bce4;fill-opacity:1;fill-rule:nonzero;stroke:none" />
      <path
         d="m 46.867798,479.1142 c 0,0 5.551,-0.352 6.625,-5.578 0,0 -1.456,4.34 -6.625,5.578"
         id="path1158"
         style="fill:#cfd4d8;fill-opacity:1;fill-rule:nonzero;stroke:none" />
      <path
         d="m 44.748001,479.0648 c 0,0 2.689,0.684 4.718,-0.491 0,0 0.064,-1.06 0.058,-1.152 0,0 -1.616,-0.116 -2.601,-0.415 0,0 -1.194,0.657 -2.453,1.021 0,0 0.185,0.676 0.278,1.037"
         id="path1162"
         style="fill:#141006;fill-opacity:1;fill-rule:nonzero;stroke:none" />
      <path
         d="m 52.961197,475.4158 c 0,0 -0.711,-0.094 -1.012,-0.091 0,0 0.027,-0.98 -0.278,-2.577 0,0 0.588,-0.814 1.224,-2.332 l 1.082,0.381 c 0,0 0.363,2.818 -1.016,4.619"
         id="path1166"
         style="fill:#141006;fill-opacity:1;fill-rule:nonzero;stroke:none" />
      <path
         d="m 44.526901,494.2218 c -0.007,-0.346 -0.013,-0.692 -0.02,-1.038 0.478,0.156 0.959,0.304 1.443,0.446 0.16,0.123 0.241,0.233 0.244,0.33 0.004,0.189 0.008,0.379 0.013,0.569 -0.089,0.043 -0.178,0.086 -0.266,0.128 -0.475,-0.138 -0.946,-0.283 -1.414,-0.435 m 0.033,1.555 c -0.007,-0.311 -0.014,-0.622 -0.02,-0.934 0.469,0.152 0.941,0.297 1.416,0.435 0.081,0.084 0.162,0.167 0.243,0.25 0.005,0.19 0.011,0.379 0.016,0.569 -0.078,0.038 -0.156,0.076 -0.234,0.113 -0.477,-0.137 -0.95,-0.282 -1.421,-0.433 m -1.027,0.275 c 1.035,0.357 2.086,0.681 3.151,0.971 0.235,-0.115 0.471,-0.232 0.706,-0.351 -0.009,-0.293 -0.017,-0.585 -0.026,-0.878 -0.199,-0.206 -0.398,-0.413 -0.596,-0.622 0.19,-0.093 0.38,-0.188 0.57,-0.283 -0.009,-0.319 -0.018,-0.638 -0.026,-0.957 -0.245,-0.244 -0.488,-0.49 -0.73,-0.737 -1.054,-0.295 -2.093,-0.623 -3.115,-0.983 -0.021,0.009 -0.043,0.018 -0.064,0.028 0.016,1.246 0.037,2.492 0.063,3.738 0.023,0.025 0.045,0.05 0.067,0.074"
         id="path1170"
         style="fill:#141006;fill-opacity:1;fill-rule:nonzero;stroke:none" />
      <path
         d="m 44.526901,494.2218 c -0.007,-0.346 -0.013,-0.692 -0.02,-1.038 0.478,0.156 0.959,0.304 1.443,0.446 0.16,0.123 0.241,0.233 0.244,0.33 0.004,0.189 0.008,0.379 0.013,0.569 -0.089,0.043 -0.178,0.086 -0.266,0.128 -0.475,-0.138 -0.946,-0.283 -1.414,-0.435 z m 0.033,1.555 c -0.007,-0.311 -0.014,-0.622 -0.02,-0.934 0.469,0.152 0.941,0.297 1.416,0.435 0.081,0.084 0.162,0.167 0.243,0.25 0.005,0.19 0.011,0.379 0.016,0.569 -0.078,0.038 -0.156,0.076 -0.234,0.113 -0.477,-0.137 -0.95,-0.282 -1.421,-0.433 z m -1.027,0.275 c 1.035,0.357 2.086,0.681 3.151,0.971 0.235,-0.115 0.471,-0.232 0.706,-0.351 -0.009,-0.293 -0.017,-0.585 -0.026,-0.878 -0.199,-0.206 -0.398,-0.413 -0.596,-0.622 0.19,-0.093 0.38,-0.188 0.57,-0.283 -0.009,-0.319 -0.018,-0.638 -0.026,-0.957 -0.245,-0.244 -0.488,-0.49 -0.73,-0.737 -1.054,-0.295 -2.093,-0.623 -3.115,-0.983 -0.021,0.009 -0.043,0.018 -0.064,0.028 0.016,1.246 0.037,2.492 0.063,3.738 0.023,0.025 0.045,0.05 0.067,0.074 z"
         id="path1174"
         style="fill:none;stroke:#ffffff;stroke-width:0.43900001;stroke-linecap:butt;stroke-linejoin:miter;stroke-miterlimit:4;stroke-opacity:1;stroke-dasharray:none" />
      <path
         d="m 44.526901,494.2218 c -0.007,-0.346 -0.013,-0.692 -0.02,-1.038 0.478,0.156 0.959,0.304 1.443,0.446 0.16,0.123 0.241,0.233 0.244,0.33 0.004,0.189 0.008,0.379 0.013,0.569 -0.089,0.043 -0.178,0.086 -0.266,0.128 -0.475,-0.138 -0.946,-0.283 -1.414,-0.435 m 0.033,1.555 c -0.007,-0.311 -0.014,-0.622 -0.02,-0.934 0.469,0.152 0.941,0.297 1.416,0.435 0.081,0.084 0.162,0.167 0.243,0.25 0.005,0.19 0.011,0.379 0.016,0.569 -0.078,0.038 -0.156,0.076 -0.234,0.113 -0.477,-0.137 -0.95,-0.282 -1.421,-0.433 m -1.027,0.275 c 1.035,0.357 2.086,0.681 3.151,0.971 0.235,-0.115 0.471,-0.232 0.706,-0.351 -0.009,-0.293 -0.017,-0.585 -0.026,-0.878 -0.199,-0.206 -0.398,-0.413 -0.596,-0.622 0.19,-0.093 0.38,-0.188 0.57,-0.283 -0.009,-0.319 -0.018,-0.638 -0.026,-0.957 -0.245,-0.244 -0.488,-0.49 -0.73,-0.737 -1.054,-0.295 -2.093,-0.623 -3.115,-0.983 -0.021,0.009 -0.043,0.018 -0.064,0.028 0.016,1.246 0.037,2.492 0.063,3.738 0.023,0.025 0.045,0.05 0.067,0.074"
         id="path1178"
         style="fill:#141006;fill-opacity:1;fill-rule:nonzero;stroke:none" />
      <path
         d="m 50.057693,497.6301 c -0.176,-0.639 -0.35,-1.279 -0.521,-1.92 0.399,0.117 0.801,0.229 1.204,0.337 -0.217,0.531 -0.433,1.063 -0.649,1.593 -0.011,-0.004 -0.023,-0.007 -0.034,-0.01 m 0.814,0.766 c 0.071,0.017 0.596,-1.116 1.581,-3.428 -0.011,-0.011 -0.022,-0.022 -0.033,-0.033 -0.359,-0.085 -0.717,-0.173 -1.074,-0.265 -0.062,0.012 -0.188,0.265 -0.377,0.759 -0.552,-0.145 -1.101,-0.3 -1.646,-0.462 -0.128,-0.613 -0.217,-0.927 -0.27,-0.943 -0.318,-0.098 -0.633,-0.198 -0.947,-0.301 -0.023,0.01 -0.045,0.019 -0.068,0.029 0.392,1.396 0.796,2.786 1.21,4.168 0.012,0.012 0.023,0.024 0.033,0.036 0.527,0.154 1.057,0.301 1.591,0.44"
         id="path1182"
         style="fill:#141006;fill-opacity:1;fill-rule:nonzero;stroke:none" />
      <path
         d="m 50.057693,497.6301 c -0.176,-0.639 -0.35,-1.279 -0.521,-1.92 0.399,0.117 0.801,0.229 1.204,0.337 -0.217,0.531 -0.433,1.063 -0.649,1.593 -0.011,-0.004 -0.023,-0.007 -0.034,-0.01 z m 0.814,0.766 c 0.071,0.017 0.596,-1.116 1.581,-3.428 -0.011,-0.011 -0.022,-0.022 -0.033,-0.033 -0.359,-0.085 -0.717,-0.173 -1.074,-0.265 -0.062,0.012 -0.188,0.265 -0.377,0.759 -0.552,-0.145 -1.101,-0.3 -1.646,-0.462 -0.128,-0.613 -0.217,-0.927 -0.27,-0.943 -0.318,-0.098 -0.633,-0.198 -0.947,-0.301 -0.023,0.01 -0.045,0.019 -0.068,0.029 0.392,1.396 0.796,2.786 1.21,4.168 0.012,0.012 0.023,0.024 0.033,0.036 0.527,0.154 1.057,0.301 1.591,0.44 z"
         id="path1186"
         style="fill:none;stroke:#ffffff;stroke-width:0.43900001;stroke-linecap:butt;stroke-linejoin:miter;stroke-miterlimit:4;stroke-opacity:1;stroke-dasharray:none" />
      <path
         d="m 50.057693,497.6301 c -0.176,-0.639 -0.35,-1.279 -0.521,-1.92 0.399,0.117 0.801,0.229 1.204,0.337 -0.217,0.531 -0.433,1.063 -0.649,1.593 -0.011,-0.004 -0.023,-0.007 -0.034,-0.01 m 0.814,0.766 c 0.071,0.017 0.596,-1.116 1.581,-3.428 -0.011,-0.011 -0.022,-0.022 -0.033,-0.033 -0.359,-0.085 -0.717,-0.173 -1.074,-0.265 -0.062,0.012 -0.188,0.265 -0.377,0.759 -0.552,-0.145 -1.101,-0.3 -1.646,-0.462 -0.128,-0.613 -0.217,-0.927 -0.27,-0.943 -0.318,-0.098 -0.633,-0.198 -0.947,-0.301 -0.023,0.01 -0.045,0.019 -0.068,0.029 0.392,1.396 0.796,2.786 1.21,4.168 0.012,0.012 0.023,0.024 0.033,0.036 0.527,0.154 1.057,0.301 1.591,0.44"
         id="path1190"
         style="fill:#141006;fill-opacity:1;fill-rule:nonzero;stroke:none" />
      <path
         d="m 54.405701,498.5414 c 0.009,-0.369 0.017,-0.738 0.026,-1.107 0.495,0.096 0.991,0.186 1.489,0.269 0.094,0.084 0.187,0.168 0.281,0.252 -0.005,0.232 -0.01,0.463 -0.014,0.695 -0.097,0.054 -0.193,0.107 -0.29,0.159 -0.499,-0.082 -0.997,-0.172 -1.492,-0.268 m 2.162,0.994 c 0.266,-0.149 0.533,-0.299 0.8,-0.451 0.006,-0.386 0.013,-0.772 0.02,-1.157 -0.213,-0.194 -0.425,-0.388 -0.637,-0.584 0.249,-0.486 0.498,-0.975 0.746,-1.464 -0.012,-0.01 -0.023,-0.02 -0.035,-0.03 -0.368,-0.052 -0.736,-0.107 -1.103,-0.166 -0.056,-0.009 -0.304,0.451 -0.744,1.374 -0.391,-0.068 -0.78,-0.14 -1.168,-0.215 0.013,-0.481 0.025,-0.962 0.038,-1.443 -0.024,-0.021 -0.048,-0.043 -0.072,-0.065 -0.34,-0.067 -0.679,-0.138 -1.017,-0.212 -0.034,0.015 -0.068,0.029 -0.102,0.044 -0.038,1.24 -0.074,2.48 -0.106,3.72 0.011,0.011 0.022,0.022 0.034,0.033 1.106,0.239 2.222,0.444 3.346,0.616"
         id="path1194"
         style="fill:#141006;fill-opacity:1;fill-rule:nonzero;stroke:none" />
      <path
         d="m 54.405701,498.5414 c 0.009,-0.369 0.017,-0.738 0.026,-1.107 0.495,0.096 0.991,0.186 1.489,0.269 0.094,0.084 0.187,0.168 0.281,0.252 -0.005,0.232 -0.01,0.463 -0.014,0.695 -0.097,0.054 -0.193,0.107 -0.29,0.159 -0.499,-0.082 -0.997,-0.172 -1.492,-0.268 z m 2.162,0.994 c 0.266,-0.149 0.533,-0.299 0.8,-0.451 0.006,-0.386 0.013,-0.772 0.02,-1.157 -0.213,-0.194 -0.425,-0.388 -0.637,-0.584 0.249,-0.486 0.498,-0.975 0.746,-1.464 -0.012,-0.01 -0.023,-0.02 -0.035,-0.03 -0.368,-0.052 -0.736,-0.107 -1.103,-0.166 -0.056,-0.009 -0.304,0.451 -0.744,1.374 -0.391,-0.068 -0.78,-0.14 -1.168,-0.215 0.013,-0.481 0.025,-0.962 0.038,-1.443 -0.024,-0.021 -0.048,-0.043 -0.072,-0.065 -0.34,-0.067 -0.679,-0.138 -1.017,-0.212 -0.034,0.015 -0.068,0.029 -0.102,0.044 -0.038,1.24 -0.074,2.48 -0.106,3.72 0.011,0.011 0.022,0.022 0.034,0.033 1.106,0.239 2.222,0.444 3.346,0.616 z"
         id="path1198"
         style="fill:none;stroke:#ffffff;stroke-width:0.43900001;stroke-linecap:butt;stroke-linejoin:miter;stroke-miterlimit:4;stroke-opacity:1;stroke-dasharray:none" />
      <path
         d="m 54.405701,498.5414 c 0.009,-0.369 0.017,-0.738 0.026,-1.107 0.495,0.096 0.991,0.186 1.489,0.269 0.094,0.084 0.187,0.168 0.281,0.252 -0.005,0.232 -0.01,0.463 -0.014,0.695 -0.097,0.054 -0.193,0.107 -0.29,0.159 -0.499,-0.082 -0.997,-0.172 -1.492,-0.268 m 2.162,0.994 c 0.266,-0.149 0.533,-0.299 0.8,-0.451 0.006,-0.386 0.013,-0.772 0.02,-1.157 -0.213,-0.194 -0.425,-0.388 -0.637,-0.584 0.249,-0.486 0.498,-0.975 0.746,-1.464 -0.012,-0.01 -0.023,-0.02 -0.035,-0.03 -0.368,-0.052 -0.736,-0.107 -1.103,-0.166 -0.056,-0.009 -0.304,0.451 -0.744,1.374 -0.391,-0.068 -0.78,-0.14 -1.168,-0.215 0.013,-0.481 0.025,-0.962 0.038,-1.443 -0.024,-0.021 -0.048,-0.043 -0.072,-0.065 -0.34,-0.067 -0.679,-0.138 -1.017,-0.212 -0.034,0.015 -0.068,0.029 -0.102,0.044 -0.038,1.24 -0.074,2.48 -0.106,3.72 0.011,0.011 0.022,0.022 0.034,0.033 1.106,0.239 2.222,0.444 3.346,0.616"
         id="path1202"
         style="fill:#141006;fill-opacity:1;fill-rule:nonzero;stroke:none" />
      <path
         d="m 59.452103,499.267 c 0.004,-0.369 0.01,-0.737 0.014,-1.106 0.504,0.052 1.009,0.098 1.515,0.137 0.096,0.076 0.192,0.151 0.287,0.227 -0.002,0.231 -0.004,0.463 -0.006,0.694 -0.097,0.062 -0.195,0.123 -0.292,0.184 -0.507,-0.038 -1.013,-0.084 -1.518,-0.136 m 2.204,0.801 c 0.268,-0.172 0.537,-0.345 0.804,-0.52 0.003,-0.386 0.006,-0.771 0.008,-1.156 -0.217,-0.174 -0.434,-0.349 -0.65,-0.526 0.246,-0.507 0.492,-1.016 0.737,-1.526 -0.012,-0.009 -0.024,-0.018 -0.035,-0.027 -0.373,-0.019 -0.746,-0.041 -1.118,-0.067 -0.057,-0.004 -0.303,0.476 -0.739,1.435 -0.397,-0.032 -0.793,-0.069 -1.189,-0.111 0.007,-0.48 0.014,-0.96 0.021,-1.44 -0.025,-0.019 -0.049,-0.039 -0.074,-0.059 -0.347,-0.036 -0.693,-0.077 -1.039,-0.12 -0.035,0.018 -0.069,0.035 -0.103,0.053 -0.023,1.238 -0.044,2.476 -0.064,3.714 0.012,0.009 0.023,0.019 0.035,0.029 1.13,0.141 2.267,0.248 3.406,0.321"
         id="path1206"
         style="fill:#141006;fill-opacity:1;fill-rule:nonzero;stroke:none" />
      <path
         d="m 59.452103,499.267 c 0.004,-0.369 0.01,-0.737 0.014,-1.106 0.504,0.052 1.009,0.098 1.515,0.137 0.096,0.076 0.192,0.151 0.287,0.227 -0.002,0.231 -0.004,0.463 -0.006,0.694 -0.097,0.062 -0.195,0.123 -0.292,0.184 -0.507,-0.038 -1.013,-0.084 -1.518,-0.136 z m 2.204,0.801 c 0.268,-0.172 0.537,-0.345 0.804,-0.52 0.003,-0.386 0.006,-0.771 0.008,-1.156 -0.217,-0.174 -0.434,-0.349 -0.65,-0.526 0.246,-0.507 0.492,-1.016 0.737,-1.526 -0.012,-0.009 -0.024,-0.018 -0.035,-0.027 -0.373,-0.019 -0.746,-0.041 -1.118,-0.067 -0.057,-0.004 -0.303,0.476 -0.739,1.435 -0.397,-0.032 -0.793,-0.069 -1.189,-0.111 0.007,-0.48 0.014,-0.96 0.021,-1.44 -0.025,-0.019 -0.049,-0.039 -0.074,-0.059 -0.347,-0.036 -0.693,-0.077 -1.039,-0.12 -0.035,0.018 -0.069,0.035 -0.103,0.053 -0.023,1.238 -0.044,2.476 -0.064,3.714 0.012,0.009 0.023,0.019 0.035,0.029 1.13,0.141 2.267,0.248 3.406,0.321 z"
         id="path1210"
         style="fill:none;stroke:#ffffff;stroke-width:0.43900001;stroke-linecap:butt;stroke-linejoin:miter;stroke-miterlimit:4;stroke-opacity:1;stroke-dasharray:none" />
      <path
         d="m 59.452103,499.267 c 0.004,-0.369 0.01,-0.737 0.014,-1.106 0.504,0.052 1.009,0.098 1.515,0.137 0.096,0.076 0.192,0.151 0.287,0.227 -0.002,0.231 -0.004,0.463 -0.006,0.694 -0.097,0.062 -0.195,0.123 -0.292,0.184 -0.507,-0.038 -1.013,-0.084 -1.518,-0.136 m 2.204,0.801 c 0.268,-0.172 0.537,-0.345 0.804,-0.52 0.003,-0.386 0.006,-0.771 0.008,-1.156 -0.217,-0.174 -0.434,-0.349 -0.65,-0.526 0.246,-0.507 0.492,-1.016 0.737,-1.526 -0.012,-0.009 -0.024,-0.018 -0.035,-0.027 -0.373,-0.019 -0.746,-0.041 -1.118,-0.067 -0.057,-0.004 -0.303,0.476 -0.739,1.435 -0.397,-0.032 -0.793,-0.069 -1.189,-0.111 0.007,-0.48 0.014,-0.96 0.021,-1.44 -0.025,-0.019 -0.049,-0.039 -0.074,-0.059 -0.347,-0.036 -0.693,-0.077 -1.039,-0.12 -0.035,0.018 -0.069,0.035 -0.103,0.053 -0.023,1.238 -0.044,2.476 -0.064,3.714 0.012,0.009 0.023,0.019 0.035,0.029 1.13,0.141 2.267,0.248 3.406,0.321"
         id="path1214"
         style="fill:#141006;fill-opacity:1;fill-rule:nonzero;stroke:none" />
      <path
         d="m 65.472397,499.64391 c -0.205,-0.582 -0.41,-1.165 -0.614,-1.749 0.424,0.004 0.848,0.004 1.271,-10e-4 -0.206,0.584 -0.413,1.168 -0.621,1.75 -0.012,0 -0.024,0 -0.036,0 m 0.874,0.533 c 0.073,-0.003 0.587,-1.264 1.516,-3.821 -0.011,-0.008 -0.023,-0.016 -0.035,-0.024 -0.374,0.016 -0.747,0.028 -1.12,0.036 -0.065,0.029 -0.185,0.313 -0.363,0.854 -0.58,0.009 -1.159,0.009 -1.738,0 -0.159,-0.567 -0.266,-0.851 -0.323,-0.852 -0.338,-0.007 -0.675,-0.017 -1.013,-0.03 -0.024,0.016 -0.048,0.031 -0.071,0.048 0.473,1.261 0.952,2.516 1.435,3.765 0.011,0.008 0.024,0.017 0.036,0.025 0.558,0.008 1.117,0.008 1.676,-10e-4"
         id="path1218"
         style="fill:#141006;fill-opacity:1;fill-rule:nonzero;stroke:none" />
      <path
         d="m 65.472397,499.64391 c -0.205,-0.582 -0.41,-1.165 -0.614,-1.749 0.424,0.004 0.848,0.004 1.271,-10e-4 -0.206,0.584 -0.413,1.168 -0.621,1.75 -0.012,0 -0.024,0 -0.036,0 z m 0.874,0.533 c 0.073,-0.003 0.587,-1.264 1.516,-3.821 -0.011,-0.008 -0.023,-0.016 -0.035,-0.024 -0.374,0.016 -0.747,0.028 -1.12,0.036 -0.065,0.029 -0.185,0.313 -0.363,0.854 -0.58,0.009 -1.159,0.009 -1.738,0 -0.159,-0.567 -0.266,-0.851 -0.323,-0.852 -0.338,-0.007 -0.675,-0.017 -1.013,-0.03 -0.024,0.016 -0.048,0.031 -0.071,0.048 0.473,1.261 0.952,2.516 1.435,3.765 0.011,0.008 0.024,0.017 0.036,0.025 0.558,0.008 1.117,0.008 1.676,-10e-4 z"
         id="path1222"
         style="fill:none;stroke:#ffffff;stroke-width:0.43900001;stroke-linecap:butt;stroke-linejoin:miter;stroke-miterlimit:4;stroke-opacity:1;stroke-dasharray:none" />
      <path
         d="m 65.472397,499.64391 c -0.205,-0.582 -0.41,-1.165 -0.614,-1.749 0.424,0.004 0.848,0.004 1.271,-10e-4 -0.206,0.584 -0.413,1.168 -0.621,1.75 -0.012,0 -0.024,0 -0.036,0 m 0.874,0.533 c 0.073,-0.003 0.587,-1.264 1.516,-3.821 -0.011,-0.008 -0.023,-0.016 -0.035,-0.024 -0.374,0.016 -0.747,0.028 -1.12,0.036 -0.065,0.029 -0.185,0.313 -0.363,0.854 -0.58,0.009 -1.159,0.009 -1.738,0 -0.159,-0.567 -0.266,-0.851 -0.323,-0.852 -0.338,-0.007 -0.675,-0.017 -1.013,-0.03 -0.024,0.016 -0.048,0.031 -0.071,0.048 0.473,1.261 0.952,2.516 1.435,3.765 0.011,0.008 0.024,0.017 0.036,0.025 0.558,0.008 1.117,0.008 1.676,-10e-4"
         id="path1226"
         style="fill:#141006;fill-opacity:1;fill-rule:nonzero;stroke:none" />
      <path
         d="m 69.369507,500.0493 c 0.868,-0.059 1.734,-0.139 2.596,-0.238 0.273,-0.228 0.546,-0.458 0.818,-0.69 -0.004,-0.221 -0.006,-0.443 -0.009,-0.664 -0.023,-0.014 -0.046,-0.027 -0.068,-0.04 -0.367,0.048 -0.734,0.091 -1.101,0.131 -0.023,0.019 -0.045,0.038 -0.067,0.056 0.001,0.14 0.003,0.279 0.004,0.419 -0.092,0.075 -0.184,0.149 -0.276,0.224 -0.391,0.04 -0.783,0.077 -1.175,0.109 -0.104,-0.057 -0.208,-0.114 -0.312,-0.171 -0.004,-0.696 -0.009,-1.391 -0.013,-2.087 0.101,-0.089 0.202,-0.178 0.303,-0.268 0.39,-0.032 0.78,-0.069 1.169,-0.109 0.104,0.063 0.208,0.125 0.311,0.188 0.002,0.138 0.004,0.277 0.006,0.416 0.023,0.014 0.047,0.028 0.071,0.043 0.343,-0.038 0.686,-0.079 1.028,-0.124 0.022,-0.019 0.044,-0.039 0.066,-0.059 -0.003,-0.237 -0.007,-0.474 -0.011,-0.71 -0.264,-0.155 -0.528,-0.311 -0.792,-0.469 -0.856,0.1 -1.714,0.18 -2.575,0.24 -0.273,0.208 -0.545,0.413 -0.819,0.617 0.004,0.891 0.008,1.781 0.011,2.672 0.278,0.173 0.556,0.345 0.835,0.514"
         id="path1230"
         style="fill:#141006;fill-opacity:1;fill-rule:nonzero;stroke:none" />
      <path
         d="m 69.369507,500.0493 c 0.868,-0.059 1.734,-0.139 2.596,-0.238 0.273,-0.228 0.546,-0.458 0.818,-0.69 -0.004,-0.221 -0.006,-0.443 -0.009,-0.664 -0.023,-0.014 -0.046,-0.027 -0.068,-0.04 -0.367,0.048 -0.734,0.091 -1.101,0.131 -0.023,0.019 -0.045,0.038 -0.067,0.056 0.001,0.14 0.003,0.279 0.004,0.419 -0.092,0.075 -0.184,0.149 -0.276,0.224 -0.391,0.04 -0.783,0.077 -1.175,0.109 -0.104,-0.057 -0.208,-0.114 -0.312,-0.171 -0.004,-0.696 -0.009,-1.391 -0.013,-2.087 0.101,-0.089 0.202,-0.178 0.303,-0.268 0.39,-0.032 0.78,-0.069 1.169,-0.109 0.104,0.063 0.208,0.125 0.311,0.188 0.002,0.138 0.004,0.277 0.006,0.416 0.023,0.014 0.047,0.028 0.071,0.043 0.343,-0.038 0.686,-0.079 1.028,-0.124 0.022,-0.019 0.044,-0.039 0.066,-0.059 -0.003,-0.237 -0.007,-0.474 -0.011,-0.71 -0.264,-0.155 -0.528,-0.311 -0.792,-0.469 -0.856,0.1 -1.714,0.18 -2.575,0.24 -0.273,0.208 -0.545,0.413 -0.819,0.617 0.004,0.891 0.008,1.781 0.011,2.672 0.278,0.173 0.556,0.345 0.835,0.514 z"
         id="path1234"
         style="fill:none;stroke:#ffffff;stroke-width:0.43900001;stroke-linecap:butt;stroke-linejoin:miter;stroke-miterlimit:4;stroke-opacity:1;stroke-dasharray:none" />
      <path
         d="m 69.369507,500.0493 c 0.868,-0.059 1.734,-0.139 2.596,-0.238 0.273,-0.228 0.546,-0.458 0.818,-0.69 -0.004,-0.221 -0.006,-0.443 -0.009,-0.664 -0.023,-0.014 -0.046,-0.027 -0.068,-0.04 -0.367,0.048 -0.734,0.091 -1.101,0.131 -0.023,0.019 -0.045,0.038 -0.067,0.056 0.001,0.14 0.003,0.279 0.004,0.419 -0.092,0.075 -0.184,0.149 -0.276,0.224 -0.391,0.04 -0.783,0.077 -1.175,0.109 -0.104,-0.057 -0.208,-0.114 -0.312,-0.171 -0.004,-0.696 -0.009,-1.391 -0.013,-2.087 0.101,-0.089 0.202,-0.178 0.303,-0.268 0.39,-0.032 0.78,-0.069 1.169,-0.109 0.104,0.063 0.208,0.125 0.311,0.188 0.002,0.138 0.004,0.277 0.006,0.416 0.023,0.014 0.047,0.028 0.071,0.043 0.343,-0.038 0.686,-0.079 1.028,-0.124 0.022,-0.019 0.044,-0.039 0.066,-0.059 -0.003,-0.237 -0.007,-0.474 -0.011,-0.71 -0.264,-0.155 -0.528,-0.311 -0.792,-0.469 -0.856,0.1 -1.714,0.18 -2.575,0.24 -0.273,0.208 -0.545,0.413 -0.819,0.617 0.004,0.891 0.008,1.781 0.011,2.672 0.278,0.173 0.556,0.345 0.835,0.514"
         id="path1238"
         style="fill:#141006;fill-opacity:1;fill-rule:nonzero;stroke:none" />
      <path
         d="m 73.619293,499.618 c 0.355,-0.05 0.709,-0.104 1.062,-0.161 0.023,-0.02 0.046,-0.04 0.069,-0.06 -0.016,-0.95 -0.033,-1.901 -0.052,-2.851 0.1,-0.09 0.2,-0.181 0.3,-0.272 0.373,-0.064 0.744,-0.132 1.114,-0.203 0.103,0.054 0.206,0.108 0.308,0.162 0.023,0.951 0.044,1.902 0.064,2.853 0.023,0.011 0.047,0.023 0.071,0.034 0.35,-0.069 0.699,-0.141 1.047,-0.217 0.021,-0.021 0.043,-0.042 0.065,-0.062 -0.025,-1.059 -0.051,-2.117 -0.08,-3.175 -0.272,-0.138 -0.545,-0.277 -0.818,-0.418 -0.816,0.169 -1.638,0.319 -2.464,0.45 -0.267,0.239 -0.535,0.477 -0.805,0.712 0.019,1.056 0.036,2.113 0.051,3.169 0.023,0.013 0.045,0.026 0.068,0.039"
         id="path1242"
         style="fill:#141006;fill-opacity:1;fill-rule:nonzero;stroke:none" />
      <path
         d="m 73.619293,499.618 c 0.355,-0.05 0.709,-0.104 1.062,-0.161 0.023,-0.02 0.046,-0.04 0.069,-0.06 -0.016,-0.95 -0.033,-1.901 -0.052,-2.851 0.1,-0.09 0.2,-0.181 0.3,-0.272 0.373,-0.064 0.744,-0.132 1.114,-0.203 0.103,0.054 0.206,0.108 0.308,0.162 0.023,0.951 0.044,1.902 0.064,2.853 0.023,0.011 0.047,0.023 0.071,0.034 0.35,-0.069 0.699,-0.141 1.047,-0.217 0.021,-0.021 0.043,-0.042 0.065,-0.062 -0.025,-1.059 -0.051,-2.117 -0.08,-3.175 -0.272,-0.138 -0.545,-0.277 -0.818,-0.418 -0.816,0.169 -1.638,0.319 -2.464,0.45 -0.267,0.239 -0.535,0.477 -0.805,0.712 0.019,1.056 0.036,2.113 0.051,3.169 0.023,0.013 0.045,0.026 0.068,0.039 z"
         id="path1246"
         style="fill:none;stroke:#ffffff;stroke-width:0.43900001;stroke-linecap:butt;stroke-linejoin:miter;stroke-miterlimit:4;stroke-opacity:1;stroke-dasharray:none" />
      <path
         d="m 73.619293,499.618 c 0.355,-0.05 0.709,-0.104 1.062,-0.161 0.023,-0.02 0.046,-0.04 0.069,-0.06 -0.016,-0.95 -0.033,-1.901 -0.052,-2.851 0.1,-0.09 0.2,-0.181 0.3,-0.272 0.373,-0.064 0.744,-0.132 1.114,-0.203 0.103,0.054 0.206,0.108 0.308,0.162 0.023,0.951 0.044,1.902 0.064,2.853 0.023,0.011 0.047,0.023 0.071,0.034 0.35,-0.069 0.699,-0.141 1.047,-0.217 0.021,-0.021 0.043,-0.042 0.065,-0.062 -0.025,-1.059 -0.051,-2.117 -0.08,-3.175 -0.272,-0.138 -0.545,-0.277 -0.818,-0.418 -0.816,0.169 -1.638,0.319 -2.464,0.45 -0.267,0.239 -0.535,0.477 -0.805,0.712 0.019,1.056 0.036,2.113 0.051,3.169 0.023,0.013 0.045,0.026 0.068,0.039"
         id="path1250"
         style="fill:#141006;fill-opacity:1;fill-rule:nonzero;stroke:none" />
      <path
         d="m 79.579605,497.8244 c -0.024,-0.843 -0.05,-1.686 -0.077,-2.529 0.461,-0.119 0.92,-0.244 1.376,-0.375 0.105,0.049 0.21,0.097 0.315,0.145 0.025,0.688 0.049,1.375 0.071,2.063 -0.111,0.111 -0.223,0.222 -0.335,0.333 -0.448,0.126 -0.898,0.248 -1.35,0.363 m 2.06,0.081 c 0.256,-0.276 0.512,-0.554 0.766,-0.834 -0.032,-0.887 -0.065,-1.774 -0.101,-2.661 -0.448,-0.24 -0.738,-0.344 -0.868,-0.305 -0.999,0.3 -2.01,0.572 -3.032,0.813 -0.022,0.023 -0.045,0.045 -0.067,0.067 0.029,0.972 0.056,1.943 0.081,2.914 -0.004,0.278 -0.008,0.555 -0.014,0.832 0.012,0.006 0.024,0.012 0.036,0.017 1.078,-0.249 2.145,-0.53 3.199,-0.843"
         id="path1254"
         style="fill:#141006;fill-opacity:1;fill-rule:nonzero;stroke:none" />
      <path
         d="m 79.579605,497.8244 c -0.024,-0.843 -0.05,-1.686 -0.077,-2.529 0.461,-0.119 0.92,-0.244 1.376,-0.375 0.105,0.049 0.21,0.097 0.315,0.145 0.025,0.688 0.049,1.375 0.071,2.063 -0.111,0.111 -0.223,0.222 -0.335,0.333 -0.448,0.126 -0.898,0.248 -1.35,0.363 z m 2.06,0.081 c 0.256,-0.276 0.512,-0.554 0.766,-0.834 -0.032,-0.887 -0.065,-1.774 -0.101,-2.661 -0.448,-0.24 -0.738,-0.344 -0.868,-0.305 -0.999,0.3 -2.01,0.572 -3.032,0.813 -0.022,0.023 -0.045,0.045 -0.067,0.067 0.029,0.972 0.056,1.943 0.081,2.914 -0.004,0.278 -0.008,0.555 -0.014,0.832 0.012,0.006 0.024,0.012 0.036,0.017 1.078,-0.249 2.145,-0.53 3.199,-0.843 z"
         id="path1258"
         style="fill:none;stroke:#ffffff;stroke-width:0.43900001;stroke-linecap:butt;stroke-linejoin:miter;stroke-miterlimit:4;stroke-opacity:1;stroke-dasharray:none" />
      <path
         d="m 79.579605,497.8244 c -0.024,-0.843 -0.05,-1.686 -0.077,-2.529 0.461,-0.119 0.92,-0.244 1.376,-0.375 0.105,0.049 0.21,0.097 0.315,0.145 0.025,0.688 0.049,1.375 0.071,2.063 -0.111,0.111 -0.223,0.222 -0.335,0.333 -0.448,0.126 -0.898,0.248 -1.35,0.363 m 2.06,0.081 c 0.256,-0.276 0.512,-0.554 0.766,-0.834 -0.032,-0.887 -0.065,-1.774 -0.101,-2.661 -0.448,-0.24 -0.738,-0.344 -0.868,-0.305 -0.999,0.3 -2.01,0.572 -3.032,0.813 -0.022,0.023 -0.045,0.045 -0.067,0.067 0.029,0.972 0.056,1.943 0.081,2.914 -0.004,0.278 -0.008,0.555 -0.014,0.832 0.012,0.006 0.024,0.012 0.036,0.017 1.078,-0.249 2.145,-0.53 3.199,-0.843"
         id="path1262"
         style="fill:#141006;fill-opacity:1;fill-rule:nonzero;stroke:none" />
      <path
         d="m 85.139206,496.2346 c -0.213,-0.516 -0.427,-1.033 -0.641,-1.551 0.389,-0.141 0.774,-0.287 1.158,-0.437 -0.159,0.66 -0.32,1.318 -0.484,1.976 -0.011,0.004 -0.022,0.008 -0.033,0.012 m 0.817,0.24 c 0.064,-0.028 0.484,-1.473 1.176,-4.375 -0.011,-0.004 -0.022,-0.008 -0.033,-0.011 -0.33,0.144 -0.663,0.284 -0.999,0.421 -0.056,0.051 -0.15,0.38 -0.284,0.986 -0.522,0.208 -1.049,0.408 -1.581,0.599 -0.172,-0.515 -0.285,-0.764 -0.337,-0.745 -0.311,0.11 -0.623,0.217 -0.937,0.321 -0.022,0.024 -0.043,0.049 -0.064,0.073 0.501,1.101 1,2.197 1.496,3.289 0.011,0.005 0.023,0.009 0.034,0.014 0.514,-0.183 1.024,-0.374 1.529,-0.572"
         id="path1266"
         style="fill:#141006;fill-opacity:1;fill-rule:nonzero;stroke:none" />
      <path
         d="m 85.139206,496.2346 c -0.213,-0.516 -0.427,-1.033 -0.641,-1.551 0.389,-0.141 0.774,-0.287 1.158,-0.437 -0.159,0.66 -0.32,1.318 -0.484,1.976 -0.011,0.004 -0.022,0.008 -0.033,0.012 z m 0.817,0.24 c 0.064,-0.028 0.484,-1.473 1.176,-4.375 -0.011,-0.004 -0.022,-0.008 -0.033,-0.011 -0.33,0.144 -0.663,0.284 -0.999,0.421 -0.056,0.051 -0.15,0.38 -0.284,0.986 -0.522,0.208 -1.049,0.408 -1.581,0.599 -0.172,-0.515 -0.285,-0.764 -0.337,-0.745 -0.311,0.11 -0.623,0.217 -0.937,0.321 -0.022,0.024 -0.043,0.049 -0.064,0.073 0.501,1.101 1,2.197 1.496,3.289 0.011,0.005 0.023,0.009 0.034,0.014 0.514,-0.183 1.024,-0.374 1.529,-0.572 z"
         id="path1270"
         style="fill:none;stroke:#ffffff;stroke-width:0.43900001;stroke-linecap:butt;stroke-linejoin:miter;stroke-miterlimit:4;stroke-opacity:1;stroke-dasharray:none" />
      <path
         d="m 85.139206,496.2346 c -0.213,-0.516 -0.427,-1.033 -0.641,-1.551 0.389,-0.141 0.774,-0.287 1.158,-0.437 -0.159,0.66 -0.32,1.318 -0.484,1.976 -0.011,0.004 -0.022,0.008 -0.033,0.012 m 0.817,0.24 c 0.064,-0.028 0.484,-1.473 1.176,-4.375 -0.011,-0.004 -0.022,-0.008 -0.033,-0.011 -0.33,0.144 -0.663,0.284 -0.999,0.421 -0.056,0.051 -0.15,0.38 -0.284,0.986 -0.522,0.208 -1.049,0.408 -1.581,0.599 -0.172,-0.515 -0.285,-0.764 -0.337,-0.745 -0.311,0.11 -0.623,0.217 -0.937,0.321 -0.022,0.024 -0.043,0.049 -0.064,0.073 0.501,1.101 1,2.197 1.496,3.289 0.011,0.005 0.023,0.009 0.034,0.014 0.514,-0.183 1.024,-0.374 1.529,-0.572"
         id="path1274"
         style="fill:#141006;fill-opacity:1;fill-rule:nonzero;stroke:none" />
      <path
         d="m 58.336594,502.75751 c -0.109,-0.364 -0.216,-0.728 -0.321,-1.092 0.236,0.037 0.472,0.071 0.709,0.104 -0.124,0.331 -0.246,0.661 -0.368,0.991 -0.007,-0.001 -0.013,-0.002 -0.02,-0.003 m 0.483,0.389 c 0.042,0.005 0.337,-0.703 0.903,-2.139 -0.006,-0.006 -0.013,-0.012 -0.02,-0.018 -0.209,-0.024 -0.418,-0.05 -0.627,-0.078 -0.038,0.012 -0.112,0.172 -0.221,0.479 -0.324,-0.044 -0.647,-0.092 -0.97,-0.143 -0.079,-0.351 -0.133,-0.53 -0.165,-0.535 -0.188,-0.03 -0.374,-0.062 -0.561,-0.095 -0.013,0.007 -0.027,0.015 -0.04,0.023 0.236,0.786 0.485,1.57 0.744,2.351 0.006,0.006 0.013,0.012 0.02,0.018 0.312,0.049 0.624,0.094 0.937,0.137"
         id="path1278"
         style="fill:#ffffff;fill-opacity:1;fill-rule:nonzero;stroke:none" />
      <path
         d="m 60.652496,503.3584 c 0.032,0.003 0.386,-0.449 1.067,-1.376 0.007,-0.004 0.014,-0.009 0.021,-0.013 0.006,0 0.013,10e-4 0.02,10e-4 -0.001,0.005 0,0.01 0,0.016 -0.008,0.479 -0.014,0.957 -0.018,1.436 0.008,0.011 0.016,0.021 0.025,0.032 0.178,0.014 0.358,0.026 0.537,0.038 0.013,-0.009 0.027,-0.019 0.04,-0.028 0.004,-0.734 0.011,-1.469 0.02,-2.203 -0.013,-0.011 -0.027,-0.022 -0.04,-0.033 -0.22,-0.014 -0.44,-0.03 -0.659,-0.047 -0.125,0.127 -0.482,0.596 -1.07,1.39 -0.007,-10e-4 -0.014,-0.002 -0.02,-0.002 0.006,-0.484 0.014,-0.968 0.024,-1.452 -0.013,-0.011 -0.026,-0.023 -0.04,-0.034 -0.17,-0.017 -0.34,-0.035 -0.509,-0.054 -0.02,0.01 -0.04,0.019 -0.059,0.029 -0.018,0.737 -0.032,1.475 -0.04,2.212 0.007,0.006 0.014,0.012 0.02,0.017 0.227,0.025 0.454,0.049 0.681,0.071"
         id="path1282"
         style="fill:#ffffff;fill-opacity:1;fill-rule:nonzero;stroke:none" />
      <path
         d="m 62.749298,503.5193 c 0.752,0.043 1.504,0.07 2.257,0.081 0.014,-0.01 0.028,-0.019 0.042,-0.029 0,-0.118 0,-0.235 0,-0.352 -0.014,-0.01 -0.027,-0.021 -0.041,-0.031 -0.262,-0.004 -0.524,-0.01 -0.786,-0.018 0.002,-0.607 0.004,-1.214 0.008,-1.822 -0.013,-0.01 -0.027,-0.02 -0.04,-0.031 -0.201,-0.006 -0.401,-0.014 -0.601,-0.022 -0.014,0.01 -0.027,0.02 -0.041,0.029 -0.005,0.607 -0.009,1.214 -0.011,1.821 -0.262,-0.011 -0.523,-0.024 -0.785,-0.038 -0.014,0.009 -0.027,0.018 -0.041,0.028 0,0.117 -0.001,0.234 -0.002,0.351 0.014,0.011 0.028,0.022 0.041,0.033"
         id="path1286"
         style="fill:#ffffff;fill-opacity:1;fill-rule:nonzero;stroke:none" />
      <path
         d="m 65.517105,503.6066 c 0.199,10e-4 0.397,0.002 0.596,10e-4 0.013,-0.01 0.026,-0.019 0.039,-0.029 -0.001,-0.736 -0.001,-1.472 -0.002,-2.208 -0.013,-0.009 -0.025,-0.019 -0.038,-0.028 -0.198,10e-4 -0.395,10e-4 -0.593,-10e-4 -0.013,0.01 -0.026,0.019 -0.038,0.029 -0.001,0.736 -0.002,1.471 -0.002,2.207 0.013,0.01 0.025,0.019 0.038,0.029"
         id="path1290"
         style="fill:#ffffff;fill-opacity:1;fill-rule:nonzero;stroke:none" />
      <path
         d="m 67.069,503.595 c 0.505,-0.011 1.01,-0.028 1.515,-0.053 0.144,-0.114 0.288,-0.228 0.432,-0.343 -0.001,-0.113 -0.001,-0.226 -0.002,-0.339 -0.014,-0.009 -0.027,-0.019 -0.041,-0.028 -0.201,0.011 -0.402,0.022 -0.603,0.031 -0.013,0.01 -0.027,0.021 -0.041,0.032 0.001,0.057 0.001,0.114 0.001,0.171 -0.04,0.032 -0.081,0.064 -0.122,0.095 -0.248,0.011 -0.496,0.02 -0.744,0.027 -0.064,-0.034 -0.128,-0.068 -0.192,-0.103 10e-4,-0.417 10e-4,-0.835 10e-4,-1.253 0.062,-0.048 0.123,-0.096 0.185,-0.144 0.24,-0.007 0.48,-0.015 0.719,-0.025 0.049,0.033 0.097,0.067 0.145,0.1 0.002,0.128 0.002,0.255 0.003,0.384 -0.199,0.008 -0.398,0.016 -0.598,0.023 -0.013,0.01 -0.027,0.021 -0.04,0.031 0,0.107 0.001,0.215 0.001,0.322 0.014,0.01 0.028,0.02 0.041,0.029 0.421,-0.014 0.842,-0.033 1.262,-0.056 0.014,-0.011 0.027,-0.022 0.041,-0.033 -0.003,-0.291 -0.005,-0.583 -0.008,-0.874 -0.152,-0.103 -0.304,-0.207 -0.455,-0.311 -0.502,0.024 -1.004,0.042 -1.506,0.053 -0.158,0.12 -0.316,0.239 -0.474,0.358 0.001,0.521 0.002,1.042 0.002,1.564 0.159,0.114 0.319,0.229 0.478,0.342"
         id="path1294"
         style="fill:#ffffff;fill-opacity:1;fill-rule:nonzero;stroke:none" />
      <path
         d="m 69.449204,503.4926 c 0.205,-0.013 0.409,-0.028 0.614,-0.043 0.013,-0.011 0.025,-0.022 0.038,-0.032 -0.003,-0.565 -0.009,-1.13 -0.016,-1.695 0.058,-0.048 0.117,-0.096 0.175,-0.145 0.215,-0.017 0.429,-0.036 0.643,-0.056 0.06,0.038 0.12,0.076 0.18,0.114 0.01,0.565 0.017,1.13 0.022,1.695 0.013,0.008 0.025,0.016 0.039,0.024 0.203,-0.019 0.407,-0.041 0.61,-0.063 0.013,-0.011 0.026,-0.022 0.038,-0.033 -0.006,-0.628 -0.016,-1.256 -0.03,-1.884 -0.158,-0.099 -0.317,-0.199 -0.475,-0.3 -0.474,0.048 -0.95,0.09 -1.426,0.124 -0.155,0.129 -0.311,0.256 -0.467,0.383 0.008,0.629 0.013,1.257 0.016,1.885 0.013,0.009 0.026,0.017 0.039,0.026"
         id="path1298"
         style="fill:#ffffff;fill-opacity:1;fill-rule:nonzero;stroke:none" />
      <path
         d="m 73.360504,502.7666 c -0.122,-0.33 -0.244,-0.66 -0.368,-0.991 0.238,-0.033 0.474,-0.067 0.71,-0.104 -0.105,0.365 -0.213,0.729 -0.322,1.092 -0.007,10e-4 -0.013,0.002 -0.02,0.003 m 0.493,0.247 c 0.039,-0.007 0.323,-0.798 0.785,-2.388 -0.006,-0.004 -0.013,-0.007 -0.02,-0.011 -0.206,0.036 -0.412,0.071 -0.62,0.105 -0.036,0.023 -0.098,0.202 -0.188,0.539 -0.322,0.05 -0.645,0.097 -0.97,0.14 -0.099,-0.325 -0.165,-0.486 -0.198,-0.481 -0.189,0.024 -0.378,0.048 -0.567,0.07 -0.014,0.012 -0.027,0.024 -0.04,0.035 0.29,0.708 0.577,1.412 0.86,2.115 0.006,0.004 0.013,0.008 0.02,0.012 0.314,-0.042 0.626,-0.088 0.938,-0.136"
         id="path1302"
         style="fill:#ffffff;fill-opacity:1;fill-rule:nonzero;stroke:none" />
      <path
         d="m 62.583694,493.52609 c 0.787,0.059 1.53,0.095 2.265,0.108 0.014,-0.011 0.029,-0.022 0.044,-0.033 -0.001,-0.135 -0.002,-0.269 -0.003,-0.403 -0.015,-0.011 -0.03,-0.023 -0.045,-0.035 -0.485,-0.008 -0.971,-0.026 -1.47,-0.053 -0.009,-0.227 -0.015,-0.454 -0.017,-0.681 0.454,0.024 0.901,0.041 1.344,0.05 0.016,-0.011 0.031,-0.022 0.046,-0.033 0,-0.134 0,-0.269 0.001,-0.402 -0.016,-0.012 -0.031,-0.024 -0.046,-0.036 -0.445,-0.008 -0.892,-0.025 -1.347,-0.05 0.002,-0.349 0.012,-0.699 0.03,-1.048 -0.015,-0.013 -0.029,-0.025 -0.044,-0.037 -0.251,-0.015 -0.504,-0.031 -0.759,-0.052 -0.016,0.011 -0.033,0.021 -0.049,0.031 -0.069,0.881 -0.063,1.761 0,2.636 0.017,0.013 0.033,0.026 0.05,0.038"
         id="path1306"
         style="fill:#141006;fill-opacity:1;fill-rule:nonzero;stroke:none" />
      <path
         d="m 65.761307,493.63921 c 0.568,-0.004 1.14,-0.021 1.734,-0.052 0.199,-0.149 0.401,-0.3 0.606,-0.451 0.009,-0.157 0.017,-0.314 0.023,-0.472 -0.015,-0.01 -0.031,-0.021 -0.046,-0.031 -0.262,0.016 -0.52,0.03 -0.775,0.041 -0.016,0.013 -0.032,0.025 -0.048,0.037 -0.003,0.099 -0.007,0.198 -0.012,0.297 -0.065,0.049 -0.131,0.098 -0.196,0.147 -0.268,0.01 -0.531,0.018 -0.794,0.023 -0.068,-0.045 -0.136,-0.09 -0.204,-0.135 0.011,-0.495 0.017,-0.989 0.018,-1.485 0.069,-0.058 0.138,-0.117 0.207,-0.176 0.265,-0.005 0.531,-0.013 0.799,-0.024 0.071,0.05 0.143,0.099 0.216,0.148 0,0.099 0.002,0.198 0.002,0.296 0.016,0.012 0.033,0.023 0.05,0.034 0.238,-0.011 0.479,-0.024 0.722,-0.039 0.016,-0.013 0.032,-0.026 0.048,-0.04 -0.002,-0.168 -0.007,-0.337 -0.014,-0.506 -0.19,-0.122 -0.379,-0.245 -0.566,-0.37 -0.59,0.032 -1.17,0.048 -1.748,0.052 -0.183,0.136 -0.368,0.27 -0.554,0.403 -0.005,0.633 -0.009,1.267 -0.011,1.901 0.183,0.135 0.364,0.269 0.543,0.402"
         id="path1310"
         style="fill:#141006;fill-opacity:1;fill-rule:nonzero;stroke:none" />
      <path
         d="m 50.229904,483.08141 c 0,0 4.534,1.397 4.099,3.054 0,0 -0.209,1.134 -2.01,-0.202 -1.8,-1.336 -2.089,-2.852 -2.089,-2.852"
         id="path1314"
         style="fill:#020202;fill-opacity:1;fill-rule:nonzero;stroke:none" />
      <path
         d="m 49.940994,482.8994 c 0,0 3.233,1.195 4.388,3.236 0,0 -0.179,1.592 -1.997,0.347 -1.818,-1.244 -2.391,-3.583 -2.391,-3.583"
         id="path1318"
         style="fill:#74c9e8;fill-opacity:1;fill-rule:nonzero;stroke:none" />
      <path
         d="m 65.082199,477.35851 c 0,0 0.502,-0.971 2.183,-1.181 0,0 0.214,-0.585 -0.935,-1.205 l -1.248,2.386 z"
         id="path1322"
         style="fill:#020202;fill-opacity:1;fill-rule:nonzero;stroke:none" />
      <path
         d="m 66.439697,476.6624 c 0,0 1.698,-0.375 0.392,-1.786 0,0 2.145,1.582 -0.392,1.786"
         id="path1326"
         style="fill:#020202;fill-opacity:1;fill-rule:nonzero;stroke:none" />
    </g>
  </g>
</svg>
